<?xml version="1.0" encoding="UTF-8" standalone="no"?><svg xmlns="http://www.w3.org/2000/svg" xmlns:xlink="http://www.w3.org/1999/xlink" contentScriptType="application/ecmascript" contentStyleType="text/css" height="243px" preserveAspectRatio="none" style="width:311px;height:243px;background:#FFFFFF;" version="1.1" viewBox="0 0 311 243" width="311px" zoomAndPan="magnify"><defs><filter height="300%" id="f1f1jo62hpzjgp" width="300%" x="-1" y="-1"><feGaussianBlur result="blurOut" stdDeviation="2.0"/><feColorMatrix in="blurOut" result="blurOut2" type="matrix" values="0 0 0 0 0 0 0 0 0 0 0 0 0 0 0 0 0 0 .4 0"/><feOffset dx="4.0" dy="4.0" in="blurOut2" result="blurOut3"/><feBlend in="SourceGraphic" in2="blurOut3" mode="normal"/></filter></defs><g><line style="stroke:#A80036;stroke-width:1.0;stroke-dasharray:5.0,5.0;" x1="45" x2="45" y1="67.4883" y2="175.4199"/><line style="stroke:#A80036;stroke-width:1.0;stroke-dasharray:5.0,5.0;" x1="180" x2="180" y1="67.4883" y2="175.4199"/><line style="stroke:#A80036;stroke-width:1.0;stroke-dasharray:5.0,5.0;" x1="283" x2="283" y1="67.4883" y2="175.4199"/><rect fill="#FEFECE" filter="url(#f1f1jo62hpzjgp)" height="30.4883" style="stroke:#A80036;stroke-width:1.5;" width="76" x="5" y="32"/><text fill="#000000" font-family="sans-serif" font-size="14" lengthAdjust="spacing" textLength="62" x="12" y="52.5352">Auth_API</text><rect fill="#FEFECE" filter="url(#f1f1jo62hpzjgp)" height="30.4883" style="stroke:#A80036;stroke-width:1.5;" width="76" x="5" y="174.4199"/><text fill="#000000" font-family="sans-serif" font-size="14" lengthAdjust="spacing" textLength="62" x="12" y="194.9551">Auth_API</text><rect fill="#FEFECE" filter="url(#f1f1jo62hpzjgp)" height="30.4883" style="stroke:#A80036;stroke-width:1.5;" width="66" x="145" y="32"/><text fill="#000000" font-family="sans-serif" font-size="14" lengthAdjust="spacing" textLength="52" x="152" y="52.5352">Pay_API</text><rect fill="#FEFECE" filter="url(#f1f1jo62hpzjgp)" height="30.4883" style="stroke:#A80036;stroke-width:1.5;" width="66" x="145" y="174.4199"/><text fill="#000000" font-family="sans-serif" font-size="14" lengthAdjust="spacing" textLength="52" x="152" y="194.9551">Pay_API</text><text fill="#000000" font-family="sans-serif" font-size="14" lengthAdjust="spacing" textLength="48" x="256" y="64.5352">Pay_DB</text><path d="M265,15 C265,5 283,5 283,5 C283,5 301,5 301,15 L301,41 C301,51 283,51 283,51 C283,51 265,51 265,41 L265,15 " fill="#FEFECE" filter="url(#f1f1jo62hpzjgp)" style="stroke:#000000;stroke-width:1.5;"/><path d="M265,15 C265,25 283,25 283,25 C283,25 301,25 301,15 " fill="none" style="stroke:#000000;stroke-width:1.5;"/><text fill="#000000" font-family="sans-serif" font-size="14" lengthAdjust="spacing" textLength="48" x="256" y="187.9551">Pay_DB</text><path d="M265,200.9082 C265,190.9082 283,190.9082 283,190.9082 C283,190.9082 301,190.9082 301,200.9082 L301,226.9082 C301,236.9082 283,236.9082 283,236.9082 C283,236.9082 265,236.9082 265,226.9082 L265,200.9082 " fill="#FEFECE" filter="url(#f1f1jo62hpzjgp)" style="stroke:#000000;stroke-width:1.5;"/><path d="M265,200.9082 C265,210.9082 283,210.9082 283,210.9082 C283,210.9082 301,210.9082 301,200.9082 " fill="none" style="stroke:#000000;stroke-width:1.5;"/><polygon fill="#A80036" points="168,94.7988,178,98.7988,168,102.7988,172,98.7988" style="stroke:#A80036;stroke-width:1.0;"/><line style="stroke:#A80036;stroke-width:1.0;" x1="45" x2="174" y1="98.7988" y2="98.7988"/><text fill="#000000" font-family="sans-serif" font-size="13" lengthAdjust="spacing" textLength="64" x="52" y="94.0566">/accounts</text><polygon fill="#A80036" points="271,124.1094,281,128.1094,271,132.1094,275,128.1094" style="stroke:#A80036;stroke-width:1.0;"/><line style="stroke:#A80036;stroke-width:1.0;" x1="180" x2="277" y1="128.1094" y2="128.1094"/><text fill="#000000" font-family="sans-serif" font-size="13" lengthAdjust="spacing" textLength="79" x="187" y="123.3672">Save records</text><polygon fill="#A80036" points="56,153.4199,46,157.4199,56,161.4199,52,157.4199" style="stroke:#A80036;stroke-width:1.0;"/><line style="stroke:#A80036;stroke-width:1.0;" x1="50" x2="179" y1="157.4199" y2="157.4199"/><text fill="#000000" font-family="sans-serif" font-size="13" lengthAdjust="spacing" textLength="111" x="62" y="152.6777">account response</text><!--MD5=[1f5e059caca40b5cd58dc16d91dedd30]
@startuml ejv/create_ejv_account
participant Auth_API
participant Pay_API
database    Pay_DB

Auth_API -> Pay_API: /accounts
Pay_API -> Pay_DB : Save records
Pay_API -> Auth_API: account response

@enduml

PlantUML version 1.2021.14(Fri Nov 12 08:46:50 PST 2021)
(GPL source distribution)
Java Runtime: OpenJDK Runtime Environment
JVM: OpenJDK 64-Bit Server VM
Default Encoding: UTF-8
Language: en
Country: CA
--></g></svg>