<?xml version="1.0" encoding="UTF-8" standalone="no"?><svg xmlns="http://www.w3.org/2000/svg" xmlns:xlink="http://www.w3.org/1999/xlink" contentScriptType="application/ecmascript" contentStyleType="text/css" height="273px" preserveAspectRatio="none" style="width:398px;height:273px;background:#FFFFFF;" version="1.1" viewBox="0 0 398 273" width="398px" zoomAndPan="magnify"><defs><filter height="300%" id="f12hcjukj1g3wo" width="300%" x="-1" y="-1"><feGaussianBlur result="blurOut" stdDeviation="2.0"/><feColorMatrix in="blurOut" result="blurOut2" type="matrix" values="0 0 0 0 0 0 0 0 0 0 0 0 0 0 0 0 0 0 .4 0"/><feOffset dx="4.0" dy="4.0" in="blurOut2" result="blurOut3"/><feBlend in="SourceGraphic" in2="blurOut3" mode="normal"/></filter></defs><g><line style="stroke:#A80036;stroke-width:1.0;stroke-dasharray:5.0,5.0;" x1="48" x2="48" y1="67.4883" y2="204.7305"/><line style="stroke:#A80036;stroke-width:1.0;stroke-dasharray:5.0,5.0;" x1="234.5" x2="234.5" y1="67.4883" y2="204.7305"/><line style="stroke:#A80036;stroke-width:1.0;stroke-dasharray:5.0,5.0;" x1="296.5" x2="296.5" y1="67.4883" y2="204.7305"/><line style="stroke:#A80036;stroke-width:1.0;stroke-dasharray:5.0,5.0;" x1="359.5" x2="359.5" y1="67.4883" y2="204.7305"/><rect fill="#FEFECE" filter="url(#f12hcjukj1g3wo)" height="30.4883" style="stroke:#A80036;stroke-width:1.5;" width="83" x="5" y="32"/><text fill="#000000" font-family="sans-serif" font-size="14" lengthAdjust="spacing" textLength="69" x="12" y="52.5352">CRON_Job</text><rect fill="#FEFECE" filter="url(#f12hcjukj1g3wo)" height="30.4883" style="stroke:#A80036;stroke-width:1.5;" width="83" x="5" y="203.7305"/><text fill="#000000" font-family="sans-serif" font-size="14" lengthAdjust="spacing" textLength="69" x="12" y="224.2656">CRON_Job</text><text fill="#000000" font-family="sans-serif" font-size="14" lengthAdjust="spacing" textLength="48" x="207.5" y="64.5352">Pay_DB</text><path d="M216.5,15 C216.5,5 234.5,5 234.5,5 C234.5,5 252.5,5 252.5,15 L252.5,41 C252.5,51 234.5,51 234.5,51 C234.5,51 216.5,51 216.5,41 L216.5,15 " fill="#FEFECE" filter="url(#f12hcjukj1g3wo)" style="stroke:#000000;stroke-width:1.5;"/><path d="M216.5,15 C216.5,25 234.5,25 234.5,25 C234.5,25 252.5,25 252.5,15 " fill="none" style="stroke:#000000;stroke-width:1.5;"/><text fill="#000000" font-family="sans-serif" font-size="14" lengthAdjust="spacing" textLength="48" x="207.5" y="217.2656">Pay_DB</text><path d="M216.5,230.2188 C216.5,220.2188 234.5,220.2188 234.5,220.2188 C234.5,220.2188 252.5,220.2188 252.5,230.2188 L252.5,256.2188 C252.5,266.2188 234.5,266.2188 234.5,266.2188 C234.5,266.2188 216.5,266.2188 216.5,256.2188 L216.5,230.2188 " fill="#FEFECE" filter="url(#f12hcjukj1g3wo)" style="stroke:#000000;stroke-width:1.5;"/><path d="M216.5,230.2188 C216.5,240.2188 234.5,240.2188 234.5,240.2188 C234.5,240.2188 252.5,240.2188 252.5,230.2188 " fill="none" style="stroke:#000000;stroke-width:1.5;"/><rect fill="#FEFECE" filter="url(#f12hcjukj1g3wo)" height="30.4883" style="stroke:#A80036;stroke-width:1.5;" width="46" x="271.5" y="32"/><text fill="#000000" font-family="sans-serif" font-size="14" lengthAdjust="spacing" textLength="32" x="278.5" y="52.5352">sFTP</text><rect fill="#FEFECE" filter="url(#f12hcjukj1g3wo)" height="30.4883" style="stroke:#A80036;stroke-width:1.5;" width="46" x="271.5" y="203.7305"/><text fill="#000000" font-family="sans-serif" font-size="14" lengthAdjust="spacing" textLength="32" x="278.5" y="224.2656">sFTP</text><rect fill="#FEFECE" filter="url(#f12hcjukj1g3wo)" height="30.4883" style="stroke:#A80036;stroke-width:1.5;" width="53" x="331.5" y="32"/><text fill="#000000" font-family="sans-serif" font-size="14" lengthAdjust="spacing" textLength="39" x="338.5" y="52.5352">minio</text><rect fill="#FEFECE" filter="url(#f12hcjukj1g3wo)" height="30.4883" style="stroke:#A80036;stroke-width:1.5;" width="53" x="331.5" y="203.7305"/><text fill="#000000" font-family="sans-serif" font-size="14" lengthAdjust="spacing" textLength="39" x="338.5" y="224.2656">minio</text><polygon fill="#A80036" points="222.5,94.7988,232.5,98.7988,222.5,102.7988,226.5,98.7988" style="stroke:#A80036;stroke-width:1.0;"/><line style="stroke:#A80036;stroke-width:1.0;" x1="48.5" x2="228.5" y1="98.7988" y2="98.7988"/><text fill="#000000" font-family="sans-serif" font-size="13" lengthAdjust="spacing" textLength="162" x="55.5" y="94.0566">Get invoices for the batch</text><polygon fill="#A80036" points="284.5,124.1094,294.5,128.1094,284.5,132.1094,288.5,128.1094" style="stroke:#A80036;stroke-width:1.0;"/><line style="stroke:#A80036;stroke-width:1.0;" x1="48.5" x2="290.5" y1="128.1094" y2="128.1094"/><text fill="#000000" font-family="sans-serif" font-size="13" lengthAdjust="spacing" textLength="177" x="55.5" y="123.3672">Upload GI and GA INBOX file</text><polygon fill="#A80036" points="284.5,153.4199,294.5,157.4199,284.5,161.4199,288.5,157.4199" style="stroke:#A80036;stroke-width:1.0;"/><line style="stroke:#A80036;stroke-width:1.0;" x1="48.5" x2="290.5" y1="157.4199" y2="157.4199"/><text fill="#000000" font-family="sans-serif" font-size="13" lengthAdjust="spacing" textLength="97" x="55.5" y="152.6777">Upload TRG file</text><polygon fill="#A80036" points="348,182.7305,358,186.7305,348,190.7305,352,186.7305" style="stroke:#A80036;stroke-width:1.0;"/><line style="stroke:#A80036;stroke-width:1.0;" x1="48.5" x2="354" y1="186.7305" y2="186.7305"/><text fill="#000000" font-family="sans-serif" font-size="13" lengthAdjust="spacing" textLength="101" x="55.5" y="181.9883">Upload to minio</text><!--MD5=[2751b210d119cb40383fe45071949739]
@startuml ejv/create_batch
participant CRON_Job
database Pay_DB
participant sFTP
participant minio

CRON_Job -> Pay_DB: Get invoices for the batch
CRON_Job -> sFTP: Upload GI and GA INBOX file
CRON_Job -> sFTP: Upload TRG file
CRON_Job -> minio : Upload to minio

@enduml

PlantUML version 1.2021.14(Fri Nov 12 08:46:50 PST 2021)
(GPL source distribution)
Java Runtime: OpenJDK Runtime Environment
JVM: OpenJDK 64-Bit Server VM
Default Encoding: UTF-8
Language: en
Country: CA
--></g></svg>