<?xml version="1.0" encoding="UTF-8" standalone="no"?><svg xmlns="http://www.w3.org/2000/svg" xmlns:xlink="http://www.w3.org/1999/xlink" contentScriptType="application/ecmascript" contentStyleType="text/css" height="221px" preserveAspectRatio="none" style="width:488px;height:221px;background:#FFFFFF;" version="1.1" viewBox="0 0 488 221" width="488px" zoomAndPan="magnify"><defs><filter height="300%" id="f1s0d27qklfgwx" width="300%" x="-1" y="-1"><feGaussianBlur result="blurOut" stdDeviation="2.0"/><feColorMatrix in="blurOut" result="blurOut2" type="matrix" values="0 0 0 0 0 0 0 0 0 0 0 0 0 0 0 0 0 0 .4 0"/><feOffset dx="4.0" dy="4.0" in="blurOut2" result="blurOut3"/><feBlend in="SourceGraphic" in2="blurOut3" mode="normal"/></filter></defs><g><line style="stroke:#A80036;stroke-width:1.0;stroke-dasharray:5.0,5.0;" x1="49" x2="49" y1="40.4883" y2="177.7305"/><line style="stroke:#A80036;stroke-width:1.0;stroke-dasharray:5.0,5.0;" x1="194.5" x2="194.5" y1="40.4883" y2="177.7305"/><line style="stroke:#A80036;stroke-width:1.0;stroke-dasharray:5.0,5.0;" x1="275.5" x2="275.5" y1="40.4883" y2="177.7305"/><line style="stroke:#A80036;stroke-width:1.0;stroke-dasharray:5.0,5.0;" x1="397.5" x2="397.5" y1="40.4883" y2="177.7305"/><rect fill="#FEFECE" filter="url(#f1s0d27qklfgwx)" height="30.4883" style="stroke:#A80036;stroke-width:1.5;" width="85" x="5" y="5"/><text fill="#000000" font-family="sans-serif" font-size="14" lengthAdjust="spacing" textLength="71" x="12" y="25.5352">FTP_Poller</text><rect fill="#FEFECE" filter="url(#f1s0d27qklfgwx)" height="30.4883" style="stroke:#A80036;stroke-width:1.5;" width="85" x="5" y="176.7305"/><text fill="#000000" font-family="sans-serif" font-size="14" lengthAdjust="spacing" textLength="71" x="12" y="197.2656">FTP_Poller</text><rect fill="#FEFECE" filter="url(#f1s0d27qklfgwx)" height="30.4883" style="stroke:#A80036;stroke-width:1.5;" width="82" x="151.5" y="5"/><text fill="#000000" font-family="sans-serif" font-size="14" lengthAdjust="spacing" textLength="68" x="158.5" y="25.5352">CAS_SFTP</text><rect fill="#FEFECE" filter="url(#f1s0d27qklfgwx)" height="30.4883" style="stroke:#A80036;stroke-width:1.5;" width="82" x="151.5" y="176.7305"/><text fill="#000000" font-family="sans-serif" font-size="14" lengthAdjust="spacing" textLength="68" x="158.5" y="197.2656">CAS_SFTP</text><rect fill="#FEFECE" filter="url(#f1s0d27qklfgwx)" height="30.4883" style="stroke:#A80036;stroke-width:1.5;" width="52" x="247.5" y="5"/><text fill="#000000" font-family="sans-serif" font-size="14" lengthAdjust="spacing" textLength="38" x="254.5" y="25.5352">Minio</text><rect fill="#FEFECE" filter="url(#f1s0d27qklfgwx)" height="30.4883" style="stroke:#A80036;stroke-width:1.5;" width="52" x="247.5" y="176.7305"/><text fill="#000000" font-family="sans-serif" font-size="14" lengthAdjust="spacing" textLength="38" x="254.5" y="197.2656">Minio</text><path d="M318.5,14 L476.5,14 C481.5,14 481.5,27.2441 481.5,27.2441 C481.5,27.2441 481.5,40.4883 476.5,40.4883 L318.5,40.4883 C313.5,40.4883 313.5,27.2441 313.5,27.2441 C313.5,27.2441 313.5,14 318.5,14 " fill="#FEFECE" filter="url(#f1s0d27qklfgwx)" style="stroke:#A80036;stroke-width:2.0;"/><path d="M476.5,14 C471.5,14 471.5,27.2441 471.5,27.2441 C471.5,40.4883 476.5,40.4883 476.5,40.4883 " fill="none" style="stroke:#A80036;stroke-width:2.0;"/><text fill="#000000" font-family="sans-serif" font-size="14" lengthAdjust="spacing" textLength="148" x="318.5" y="32.5352">Reconciliation_Queue</text><path d="M318.5,176.7305 L476.5,176.7305 C481.5,176.7305 481.5,189.9746 481.5,189.9746 C481.5,189.9746 481.5,203.2188 476.5,203.2188 L318.5,203.2188 C313.5,203.2188 313.5,189.9746 313.5,189.9746 C313.5,189.9746 313.5,176.7305 318.5,176.7305 " fill="#FEFECE" filter="url(#f1s0d27qklfgwx)" style="stroke:#A80036;stroke-width:2.0;"/><path d="M476.5,176.7305 C471.5,176.7305 471.5,189.9746 471.5,189.9746 C471.5,203.2188 476.5,203.2188 476.5,203.2188 " fill="none" style="stroke:#A80036;stroke-width:2.0;"/><text fill="#000000" font-family="sans-serif" font-size="14" lengthAdjust="spacing" textLength="148" x="318.5" y="195.2656">Reconciliation_Queue</text><polygon fill="#A80036" points="182.5,67.7988,192.5,71.7988,182.5,75.7988,186.5,71.7988" style="stroke:#A80036;stroke-width:1.0;"/><line style="stroke:#A80036;stroke-width:1.0;" x1="49.5" x2="188.5" y1="71.7988" y2="71.7988"/><text fill="#000000" font-family="sans-serif" font-size="13" lengthAdjust="spacing" textLength="121" x="56.5" y="67.0566">Check for new files</text><polygon fill="#A80036" points="263.5,97.1094,273.5,101.1094,263.5,105.1094,267.5,101.1094" style="stroke:#A80036;stroke-width:1.0;"/><line style="stroke:#A80036;stroke-width:1.0;" x1="49.5" x2="269.5" y1="101.1094" y2="101.1094"/><text fill="#000000" font-family="sans-serif" font-size="13" lengthAdjust="spacing" textLength="68" x="56.5" y="96.3672">Upload file</text><polygon fill="#A80036" points="385.5,126.4199,395.5,130.4199,385.5,134.4199,389.5,130.4199" style="stroke:#A80036;stroke-width:1.0;"/><line style="stroke:#A80036;stroke-width:1.0;" x1="49.5" x2="391.5" y1="130.4199" y2="130.4199"/><text fill="#000000" font-family="sans-serif" font-size="13" lengthAdjust="spacing" textLength="84" x="56.5" y="125.6777">Publish event</text><polygon fill="#A80036" points="182.5,155.7305,192.5,159.7305,182.5,163.7305,186.5,159.7305" style="stroke:#A80036;stroke-width:1.0;"/><line style="stroke:#A80036;stroke-width:1.0;" x1="49.5" x2="188.5" y1="159.7305" y2="159.7305"/><text fill="#000000" font-family="sans-serif" font-size="13" lengthAdjust="spacing" textLength="73" x="56.5" y="154.9883">Archive File</text><!--MD5=[8b730896059d5fd532cf5d2668527a62]
@startuml ejv/ftp_poller
participant FTP_Poller
participant CAS_SFTP
participant Minio
queue       Reconciliation_Queue

FTP_Poller -> CAS_SFTP: Check for new files
FTP_Poller -> Minio: Upload file
FTP_Poller -> Reconciliation_Queue: Publish event
FTP_Poller -> CAS_SFTP: Archive File

@enduml

PlantUML version 1.2021.14(Fri Nov 12 08:46:50 PST 2021)
(GPL source distribution)
Java Runtime: OpenJDK Runtime Environment
JVM: OpenJDK 64-Bit Server VM
Default Encoding: UTF-8
Language: en
Country: CA
--></g></svg>