<?xml version="1.0" encoding="UTF-8" standalone="no"?><svg xmlns="http://www.w3.org/2000/svg" xmlns:xlink="http://www.w3.org/1999/xlink" contentScriptType="application/ecmascript" contentStyleType="text/css" height="703px" preserveAspectRatio="none" style="width:1289px;height:703px;background:#FFFFFF;" version="1.1" viewBox="0 0 1289 703" width="1289px" zoomAndPan="magnify"><defs><filter height="300%" id="fdp1qn8dnwkcr" width="300%" x="-1" y="-1"><feGaussianBlur result="blurOut" stdDeviation="2.0"/><feColorMatrix in="blurOut" result="blurOut2" type="matrix" values="0 0 0 0 0 0 0 0 0 0 0 0 0 0 0 0 0 0 .4 0"/><feOffset dx="4.0" dy="4.0" in="blurOut2" result="blurOut3"/><feBlend in="SourceGraphic" in2="blurOut3" mode="normal"/></filter></defs><g><text fill="#000000" font-family="sans-serif" font-size="18" lengthAdjust="spacing" textLength="277" x="498.75" y="17.4023">EJV Reversal Reconciliation Flow</text><ellipse cx="644" cy="37.1992" fill="#000000" filter="url(#fdp1qn8dnwkcr)" rx="10" ry="10" style="stroke:none;stroke-width:1.0;"/><rect fill="#FEFECE" filter="url(#fdp1qn8dnwkcr)" height="34.1328" rx="12.5" ry="12.5" style="stroke:#A80036;stroke-width:1.5;" width="267" x="510.5" y="87.1992"/><text fill="#000000" font-family="sans-serif" font-size="12" lengthAdjust="spacing" textLength="247" x="520.5" y="108.8008">Separate and group EJV and AP FEEDBACK</text><path d="M798,91.6992 L798,100.1992 L777.69,104.1992 L798,108.1992 L798,117.0098 A0,0 0 0 0 798,117.0098 L1228,117.0098 A0,0 0 0 0 1228,117.0098 L1228,101.6992 L1218,91.6992 L798,91.6992 A0,0 0 0 0 798,91.6992 " fill="#FBFB77" filter="url(#fdp1qn8dnwkcr)" style="stroke:#A80036;stroke-width:1.0;"/><path d="M1218,91.6992 L1218,101.6992 L1228,101.6992 L1218,91.6992 " fill="#FBFB77" style="stroke:#A80036;stroke-width:1.0;"/><text fill="#000000" font-family="sans-serif" font-size="13" lengthAdjust="spacing" textLength="409" x="804" y="109.2676">Reconciliation contains the listeners for any FEEDBACK from CGI.</text><rect fill="#000000" filter="url(#fdp1qn8dnwkcr)" height="8" style="stroke:none;stroke-width:1.0;" width="80" x="604" y="174.1992"/><rect fill="#FEFECE" filter="url(#fdp1qn8dnwkcr)" height="34.1328" rx="12.5" ry="12.5" style="stroke:#A80036;stroke-width:1.5;" width="226" x="358" y="161.1992"/><text fill="#000000" font-family="sans-serif" font-size="12" lengthAdjust="spacing" textLength="206" x="368" y="182.8008">Gov Account Reversal Reconciliation</text><rect fill="#FEFECE" filter="url(#fdp1qn8dnwkcr)" height="34.1328" rx="12.5" ry="12.5" style="stroke:#A80036;stroke-width:1.5;" width="251" x="519.5" y="235.1992"/><text fill="#000000" font-family="sans-serif" font-size="12" lengthAdjust="spacing" textLength="231" x="529.5" y="256.8008">Get the status code from FEEDBACK line</text><polygon fill="#FEFECE" filter="url(#fdp1qn8dnwkcr)" points="494,309.1992,506,321.1992,494,333.1992,482,321.1992,494,309.1992" style="stroke:#A80036;stroke-width:1.5;"/><rect fill="#FEFECE" filter="url(#fdp1qn8dnwkcr)" height="62.3984" rx="12.5" ry="12.5" style="stroke:#A80036;stroke-width:1.5;" width="272" x="7" y="373.1992"/><text fill="#000000" font-family="sans-serif" font-size="12" lengthAdjust="spacing" textLength="209" x="36.5" y="394.8008">Update invoice status to REFUNDED,</text><text fill="#000000" font-family="sans-serif" font-size="12" lengthAdjust="spacing" textLength="0" x="145" y="408.9336"/><text fill="#000000" font-family="sans-serif" font-size="12" lengthAdjust="spacing" textLength="252" x="17" y="423.0664">and invoice reference status to COMPLETED</text><path d="M299.5,391.6992 L299.5,400.1992 L279.12,404.1992 L299.5,408.1992 L299.5,417.0098 A0,0 0 0 0 299.5,417.0098 L370.5,417.0098 A0,0 0 0 0 370.5,417.0098 L370.5,401.6992 L360.5,391.6992 L299.5,391.6992 A0,0 0 0 0 299.5,391.6992 " fill="#FBFB77" filter="url(#fdp1qn8dnwkcr)" style="stroke:#A80036;stroke-width:1.0;"/><path d="M360.5,391.6992 L360.5,401.6992 L370.5,401.6992 L360.5,391.6992 " fill="#FBFB77" style="stroke:#A80036;stroke-width:1.0;"/><text fill="#000000" font-family="sans-serif" font-size="13" lengthAdjust="spacing" textLength="50" x="305.5" y="409.2676">Success</text><rect fill="#FEFECE" filter="url(#fdp1qn8dnwkcr)" height="62.3984" rx="12.5" ry="12.5" style="stroke:#A80036;stroke-width:1.5;" width="206" x="391" y="373.1992"/><text fill="#000000" font-family="sans-serif" font-size="12" lengthAdjust="spacing" textLength="182" x="401" y="394.8008">Update invoice reference status</text><text fill="#000000" font-family="sans-serif" font-size="12" lengthAdjust="spacing" textLength="0" x="496" y="408.9336"/><text fill="#000000" font-family="sans-serif" font-size="12" lengthAdjust="spacing" textLength="83" x="452.5" y="423.0664">to CANCELLED</text><path d="M617.5,391.6992 L617.5,400.1992 L597.23,404.1992 L617.5,408.1992 L617.5,417.0098 A0,0 0 0 0 617.5,417.0098 L680.5,417.0098 A0,0 0 0 0 680.5,417.0098 L680.5,401.6992 L670.5,391.6992 L617.5,391.6992 A0,0 0 0 0 617.5,391.6992 " fill="#FBFB77" filter="url(#fdp1qn8dnwkcr)" style="stroke:#A80036;stroke-width:1.0;"/><path d="M670.5,391.6992 L670.5,401.6992 L680.5,401.6992 L670.5,391.6992 " fill="#FBFB77" style="stroke:#A80036;stroke-width:1.0;"/><text fill="#000000" font-family="sans-serif" font-size="13" lengthAdjust="spacing" textLength="42" x="623.5" y="409.2676">Failure</text><rect fill="#FEFECE" filter="url(#fdp1qn8dnwkcr)" height="34.1328" rx="12.5" ry="12.5" style="stroke:#A80036;stroke-width:1.5;" width="333" x="460.5" y="475.1992"/><text fill="#000000" font-family="sans-serif" font-size="12" lengthAdjust="spacing" textLength="313" x="470.5" y="496.8008">Update gov account distribution code stop_ejv to True</text><rect fill="#FEFECE" filter="url(#fdp1qn8dnwkcr)" height="34.1328" rx="12.5" ry="12.5" style="stroke:#A80036;stroke-width:1.5;" width="230" x="545" y="549.1992"/><text fill="#000000" font-family="sans-serif" font-size="12" lengthAdjust="spacing" textLength="210" x="555" y="570.8008">Publish staff email of reversal failure</text><rect fill="#000000" filter="url(#fdp1qn8dnwkcr)" height="8" style="stroke:none;stroke-width:1.0;" width="80" x="757" y="623.1992"/><rect fill="#FEFECE" filter="url(#fdp1qn8dnwkcr)" height="34.1328" rx="12.5" ry="12.5" style="stroke:#A80036;stroke-width:1.5;" width="229" x="704.5" y="161.1992"/><text fill="#000000" font-family="sans-serif" font-size="12" lengthAdjust="spacing" textLength="209" x="714.5" y="182.8008">Dibursement Reversal Reconciliation</text><polygon fill="#FEFECE" filter="url(#fdp1qn8dnwkcr)" points="797,309.1992,809,321.1992,797,333.1992,785,321.1992,797,309.1992" style="stroke:#A80036;stroke-width:1.5;"/><rect fill="#FEFECE" filter="url(#fdp1qn8dnwkcr)" height="62.3984" rx="12.5" ry="12.5" style="stroke:#A80036;stroke-width:1.5;" width="192" x="701" y="373.1992"/><text fill="#000000" font-family="sans-serif" font-size="12" lengthAdjust="spacing" textLength="168" x="711" y="394.8008">Update invoice disbursement</text><text fill="#000000" font-family="sans-serif" font-size="12" lengthAdjust="spacing" textLength="0" x="799" y="408.9336"/><text fill="#000000" font-family="sans-serif" font-size="12" lengthAdjust="spacing" textLength="113" x="740.5" y="423.0664">status to REVERSED</text><path d="M913.5,391.6992 L913.5,400.1992 L893.19,404.1992 L913.5,408.1992 L913.5,417.0098 A0,0 0 0 0 913.5,417.0098 L984.5,417.0098 A0,0 0 0 0 984.5,417.0098 L984.5,401.6992 L974.5,391.6992 L913.5,391.6992 A0,0 0 0 0 913.5,391.6992 " fill="#FBFB77" filter="url(#fdp1qn8dnwkcr)" style="stroke:#A80036;stroke-width:1.0;"/><path d="M974.5,391.6992 L974.5,401.6992 L984.5,401.6992 L974.5,391.6992 " fill="#FBFB77" style="stroke:#A80036;stroke-width:1.0;"/><text fill="#000000" font-family="sans-serif" font-size="13" lengthAdjust="spacing" textLength="50" x="919.5" y="409.2676">Success</text><rect fill="#FEFECE" filter="url(#fdp1qn8dnwkcr)" height="62.3984" rx="12.5" ry="12.5" style="stroke:#A80036;stroke-width:1.5;" width="192" x="1005" y="373.1992"/><text fill="#000000" font-family="sans-serif" font-size="12" lengthAdjust="spacing" textLength="168" x="1015" y="394.8008">Update invoice disbursement</text><text fill="#000000" font-family="sans-serif" font-size="12" lengthAdjust="spacing" textLength="0" x="1103" y="408.9336"/><text fill="#000000" font-family="sans-serif" font-size="12" lengthAdjust="spacing" textLength="109" x="1046.5" y="423.0664">status to ERRORED</text><path d="M1217.5,391.6992 L1217.5,400.1992 L1197.26,404.1992 L1217.5,408.1992 L1217.5,417.0098 A0,0 0 0 0 1217.5,417.0098 L1280.5,417.0098 A0,0 0 0 0 1280.5,417.0098 L1280.5,401.6992 L1270.5,391.6992 L1217.5,391.6992 A0,0 0 0 0 1217.5,391.6992 " fill="#FBFB77" filter="url(#fdp1qn8dnwkcr)" style="stroke:#A80036;stroke-width:1.0;"/><path d="M1270.5,391.6992 L1270.5,401.6992 L1280.5,401.6992 L1270.5,391.6992 " fill="#FBFB77" style="stroke:#A80036;stroke-width:1.0;"/><text fill="#000000" font-family="sans-serif" font-size="13" lengthAdjust="spacing" textLength="42" x="1223.5" y="409.2676">Failure</text><rect fill="#FEFECE" filter="url(#fdp1qn8dnwkcr)" height="34.1328" rx="12.5" ry="12.5" style="stroke:#A80036;stroke-width:1.5;" width="308" x="880" y="475.1992"/><text fill="#000000" font-family="sans-serif" font-size="12" lengthAdjust="spacing" textLength="288" x="890" y="496.8008">Update partner distribution code stop_ejv to True</text><rect fill="#FEFECE" filter="url(#fdp1qn8dnwkcr)" height="34.1328" rx="12.5" ry="12.5" style="stroke:#A80036;stroke-width:1.5;" width="277" x="845.5" y="549.1992"/><text fill="#000000" font-family="sans-serif" font-size="12" lengthAdjust="spacing" textLength="257" x="855.5" y="570.8008">Publish staff email of partner reversal failure</text><ellipse cx="797" cy="681.1992" filter="url(#fdp1qn8dnwkcr)" rx="10" ry="10" style="stroke:#000000;stroke-width:1.0;fill:none;"/><ellipse cx="797.5" cy="681.6992" fill="#000000" rx="6" ry="6" style="stroke:none;stroke-width:1.0;"/><!--MD5=[d6eef21accfb9faf230da486f9bf4796]
link start to Separate and group EJV and AP FEEDBACK--><path d="M644,47.2392 C644,56.1292 644,70.0392 644,81.7692 " fill="none" id="start-to-Separate and group EJV and AP FEEDBACK" style="stroke:#A80036;stroke-width:1.0;"/><polygon fill="#A80036" points="644,86.9792,648,77.9792,644,81.9792,640,77.9792,644,86.9792" style="stroke:#A80036;stroke-width:1.0;"/><!--MD5=[ed0fcef8cad7152c658e68d65550620a]
link Separate and group EJV and AP FEEDBACK to EJV_RECONCILIATION_START--><path d="M637.6,121.5392 C635.75,136.3692 636.23,157.6292 639.05,169.1092 " fill="none" id="Separate and group EJV and AP FEEDBACK-to-EJV_RECONCILIATION_START" style="stroke:#A80036;stroke-width:1.0;"/><polygon fill="#A80036" points="640.62,173.8792,641.6218,164.0814,639.0646,169.1273,634.0187,166.5701,640.62,173.8792" style="stroke:#A80036;stroke-width:1.0;"/><!--MD5=[ed0fcef8cad7152c658e68d65550620a]
link Separate and group EJV and AP FEEDBACK to EJV_RECONCILIATION_START--><path d="M650.4,121.5392 C652.25,136.3692 651.77,157.6292 648.95,169.1092 " fill="none" id="Separate and group EJV and AP FEEDBACK-to-EJV_RECONCILIATION_START-1" style="stroke:#A80036;stroke-width:1.0;"/><polygon fill="#A80036" points="647.38,173.8792,653.9813,166.5701,648.9354,169.1273,646.3782,164.0814,647.38,173.8792" style="stroke:#A80036;stroke-width:1.0;"/><!--MD5=[fce11b4b73e8fd310d7bb25ae74d6ae0]
reverse link Gov Account Reversal Reconciliation to EJV_RECONCILIATION_START--><path d="M589.41,178.1992 C594.21,178.1992 599.01,178.1992 603.82,178.1992 " fill="none" id="Gov Account Reversal Reconciliation-backto-EJV_RECONCILIATION_START" style="stroke:#A80036;stroke-width:1.0;"/><polygon fill="#A80036" points="584.19,178.1992,593.19,182.1992,589.19,178.1992,593.19,174.1992,584.19,178.1992" style="stroke:#A80036;stroke-width:1.0;"/><!--MD5=[a2614b192c4777e9752d7f7df89e190d]
link Gov Account Reversal Reconciliation to Get the status code from FEEDBACK line--><path d="M510.05,195.3592 C537.14,206.5692 573.25,221.5092 601.3,233.1192 " fill="none" id="Gov Account Reversal Reconciliation-to-Get the status code from FEEDBACK line" style="stroke:#A80036;stroke-width:1.0;"/><polygon fill="#A80036" points="606.08,235.0992,599.2998,227.9558,601.4617,233.1833,596.2342,235.3451,606.08,235.0992" style="stroke:#A80036;stroke-width:1.0;"/><!--MD5=[193903aadbc9852097c7d304d88cccd0]
link Get the status code from FEEDBACK line to #123--><path d="M608.83,269.2492 C575.74,283.9292 528.65,304.8192 506.47,314.6692 " fill="none" id="Get the status code from FEEDBACK line-to-#123" style="stroke:#A80036;stroke-width:1.0;"/><polygon fill="#A80036" points="501.88,316.6992,511.7289,316.7049,506.4502,314.6712,508.484,309.3926,501.88,316.6992" style="stroke:#A80036;stroke-width:1.0;"/><text fill="#000000" font-family="sans-serif" font-size="11" lengthAdjust="spacing" textLength="177" x="514.2287" y="314.0499">Reversal success (i.e, code 0000)</text><!--MD5=[1df95f50392ded665119e405956a6734]
link #123 to Update invoice status to REFUNDED, \n\nand invoice reference status to COMPLETED--><path d="M484.97,324.2792 C455.72,331.0292 360.7,352.9592 278.22,371.9992 " fill="none" id="#123-to-Update invoice status to REFUNDED, \n\nand invoice reference status to COMPLETED" style="stroke:#A80036;stroke-width:1.0;"/><polygon fill="#A80036" points="273.31,373.1292,282.9806,374.9948,278.181,372.0007,281.175,367.2012,273.31,373.1292" style="stroke:#A80036;stroke-width:1.0;"/><!--MD5=[97d0b9da61e06fc680b8558fda1b8bfa]
link #123 to Update invoice reference status \n\nto CANCELLED--><path d="M494,333.4592 C494,342.4392 494,355.5192 494,367.9292 " fill="none" id="#123-to-Update invoice reference status \n\nto CANCELLED" style="stroke:#A80036;stroke-width:1.0;"/><polygon fill="#A80036" points="494,373.1992,498,364.1992,494,368.1992,490,364.1992,494,373.1992" style="stroke:#A80036;stroke-width:1.0;"/><!--MD5=[122368bef8f24ae4f393e603e2105cdb]
link Update invoice reference status \n\nto CANCELLED to Update gov account distribution code stop_ejv to True--><path d="M540.52,435.2792 C559.42,447.4992 580.69,461.2492 597.4,472.0592 " fill="none" id="Update invoice reference status \n\nto CANCELLED-to-Update gov account distribution code stop_ejv to True" style="stroke:#A80036;stroke-width:1.0;"/><polygon fill="#A80036" points="601.99,475.0292,596.6349,466.7635,597.8014,472.2988,592.2661,473.4653,601.99,475.0292" style="stroke:#A80036;stroke-width:1.0;"/><!--MD5=[4d2da87c11bdd12f3261f4416b62027a]
link Update gov account distribution code stop_ejv to True to Publish staff email of reversal failure--><path d="M634.49,509.5392 C639.21,519.8492 645.36,533.2592 650.44,544.3392 " fill="none" id="Update gov account distribution code stop_ejv to True-to-Publish staff email of reversal failure" style="stroke:#A80036;stroke-width:1.0;"/><polygon fill="#A80036" points="652.54,548.9292,652.42,539.0811,650.4538,544.3852,645.1496,542.4191,652.54,548.9292" style="stroke:#A80036;stroke-width:1.0;"/><!--MD5=[1465da643b396d9a0c399e608a39202f]
link Publish staff email of reversal failure to EJV_RECONCILIATION_END--><path d="M697.44,583.3192 C726.69,595.9192 765.54,612.6492 784.92,620.9992 " fill="none" id="Publish staff email of reversal failure-to-EJV_RECONCILIATION_END" style="stroke:#A80036;stroke-width:1.0;"/><polygon fill="#A80036" points="789.85,623.1192,783.1615,615.8898,785.2565,621.1444,780.0019,623.2394,789.85,623.1192" style="stroke:#A80036;stroke-width:1.0;"/><!--MD5=[4b3e7f6c58f5310b342a3e59ab042bf6]
link EJV_RECONCILIATION_START to Dibursement Reversal Reconciliation--><path d="M684.33,178.1992 C689.23,178.1992 694.12,178.1992 699.01,178.1992 " fill="none" id="EJV_RECONCILIATION_START-to-Dibursement Reversal Reconciliation" style="stroke:#A80036;stroke-width:1.0;"/><polygon fill="#A80036" points="704.32,178.1992,695.32,174.1992,699.32,178.1992,695.32,182.1992,704.32,178.1992" style="stroke:#A80036;stroke-width:1.0;"/><!--MD5=[5383a255c18671b540274574b1cbb154]
link Dibursement Reversal Reconciliation to Get the status code from FEEDBACK line--><path d="M779.95,195.3592 C752.86,206.5692 716.75,221.5092 688.7,233.1192 " fill="none" id="Dibursement Reversal Reconciliation-to-Get the status code from FEEDBACK line" style="stroke:#A80036;stroke-width:1.0;"/><polygon fill="#A80036" points="683.92,235.0992,693.7658,235.3451,688.5383,233.1833,690.7002,227.9558,683.92,235.0992" style="stroke:#A80036;stroke-width:1.0;"/><!--MD5=[a7e7534f38b2142c5c84d06c9ae507f4]
link Get the status code from FEEDBACK line to #146--><path d="M681.41,269.2492 C714.89,283.9992 762.58,305.0292 784.77,314.8092 " fill="none" id="Get the status code from FEEDBACK line-to-#146" style="stroke:#A80036;stroke-width:1.0;"/><polygon fill="#A80036" points="789.35,316.8292,782.7269,309.5398,784.7745,314.8131,779.5012,316.8607,789.35,316.8292" style="stroke:#A80036;stroke-width:1.0;"/><text fill="#000000" font-family="sans-serif" font-size="11" lengthAdjust="spacing" textLength="253" x="523.983" y="327.6583">Disbursement reversal success (i.e, code 0000)</text><!--MD5=[76db74e78af3f0a7e2303aceb2e94e70]
link #146 to Update invoice disbursement \n\nstatus to REVERSED--><path d="M797,333.4592 C797,342.4392 797,355.5192 797,367.9292 " fill="none" id="#146-to-Update invoice disbursement \n\nstatus to REVERSED" style="stroke:#A80036;stroke-width:1.0;"/><polygon fill="#A80036" points="797,373.1992,801,364.1992,797,368.1992,793,364.1992,797,373.1992" style="stroke:#A80036;stroke-width:1.0;"/><!--MD5=[d4dad572fecff66841fa4f13433366fb]
link #146 to Update invoice disbursement \n\nstatus to ERRORED--><path d="M806.1,324.4592 C834.24,331.4792 922.35,353.5692 995,373.1992 C996.62,373.6392 998.24,374.0792 999.88,374.5192 " fill="none" id="#146-to-Update invoice disbursement \n\nstatus to ERRORED" style="stroke:#A80036;stroke-width:1.0;"/><polygon fill="#A80036" points="1004.83,375.8792,997.1965,369.6559,1000.0055,374.566,995.0954,377.3751,1004.83,375.8792" style="stroke:#A80036;stroke-width:1.0;"/><!--MD5=[00ed38e4f08bdfa3120bfa543b42f9c7]
link Update invoice disbursement \n\nstatus to ERRORED to Update partner distribution code stop_ejv to True--><path d="M1077.57,435.2792 C1068.37,447.0792 1058.06,460.3092 1049.78,470.9392 " fill="none" id="Update invoice disbursement \n\nstatus to ERRORED-to-Update partner distribution code stop_ejv to True" style="stroke:#A80036;stroke-width:1.0;"/><polygon fill="#A80036" points="1046.6,475.0292,1055.2864,470.3873,1049.6727,471.0848,1048.9752,465.4711,1046.6,475.0292" style="stroke:#A80036;stroke-width:1.0;"/><!--MD5=[080cdaeabaabc83c89773af58f0ffe3e]
link Update partner distribution code stop_ejv to True to Publish staff email of partner reversal failure--><path d="M1022.65,509.5392 C1015.43,519.9392 1006.01,533.4992 998.28,544.6292 " fill="none" id="Update partner distribution code stop_ejv to True-to-Publish staff email of partner reversal failure" style="stroke:#A80036;stroke-width:1.0;"/><polygon fill="#A80036" points="995.3,548.9292,1003.7274,543.8322,998.1587,544.827,997.1639,539.2583,995.3,548.9292" style="stroke:#A80036;stroke-width:1.0;"/><!--MD5=[0244d8ce6fd70bc7036920b583e09ea2]
link Publish staff email of partner reversal failure to EJV_RECONCILIATION_END--><path d="M932.9,583.3192 C892.11,596.1892 837.67,613.3692 811.82,621.5192 " fill="none" id="Publish staff email of partner reversal failure-to-EJV_RECONCILIATION_END" style="stroke:#A80036;stroke-width:1.0;"/><polygon fill="#A80036" points="806.76,623.1192,816.5453,624.236,811.5299,621.6197,814.1461,616.6042,806.76,623.1192" style="stroke:#A80036;stroke-width:1.0;"/><!--MD5=[0f332db4c031229137a84fa34a1f75b3]
link EJV_RECONCILIATION_END to end--><path d="M797,631.2992 C797,637.9692 797,654.0692 797,665.9792 " fill="none" id="EJV_RECONCILIATION_END-to-end" style="stroke:#A80036;stroke-width:1.0;"/><polygon fill="#A80036" points="797,671.1092,801,662.1092,797,666.1092,793,662.1092,797,671.1092" style="stroke:#A80036;stroke-width:1.0;"/><!--MD5=[8e02ee50abda8cff6ed0caa01a98bda4]
@startuml
    title EJV Reversal Reconciliation Flow

    (*) - -> "Separate and group EJV and AP FEEDBACK"
    note right
    Reconciliation contains the listeners for any FEEDBACK from CGI.
    end note

    - -> ===EJV_RECONCILIATION_START=== 

    -left-> "Gov Account Reversal Reconciliation"
        -down-> "Get the status code from FEEDBACK line"
        if "Reversal success (i.e, code 0000)" then
            - ->"Update invoice status to REFUNDED, \n
            and invoice reference status to COMPLETED"
            note right
                Success
            end note
        else
            - ->"Update invoice reference status \n
             to CANCELLED"
            note right
                Failure
            end note
            - ->"Update gov account distribution code stop_ejv to True"
            - ->"Publish staff email of reversal failure"
        endif


    -down-> ===EJV_RECONCILIATION_END===

    "Separate and group EJV and AP FEEDBACK" - -> ===EJV_RECONCILIATION_START=== 
        -right-> "Dibursement Reversal Reconciliation"
        -down-> "Get the status code from FEEDBACK line"
        if "Disbursement reversal success (i.e, code 0000)" then
            - ->"Update invoice disbursement \n
            status to REVERSED"
            note right
                Success
            end note
        else
            - ->"Update invoice disbursement \n
            status to ERRORED"
            note right
                Failure
            end note
            - ->"Update partner distribution code stop_ejv to True"
            - ->"Publish staff email of partner reversal failure"
        endif

    -down-> ===EJV_RECONCILIATION_END===
    - -> (*)

    @enduml

PlantUML version 1.2021.14(Fri Nov 12 08:46:50 PST 2021)
(GPL source distribution)
Java Runtime: OpenJDK Runtime Environment
JVM: OpenJDK 64-Bit Server VM
Default Encoding: UTF-8
Language: en
Country: CA
--></g></svg>