<?xml version="1.0" encoding="UTF-8" standalone="no"?><svg xmlns="http://www.w3.org/2000/svg" xmlns:xlink="http://www.w3.org/1999/xlink" contentScriptType="application/ecmascript" contentStyleType="text/css" height="310px" preserveAspectRatio="none" style="width:368px;height:310px;background:#FFFFFF;" version="1.1" viewBox="0 0 368 310" width="368px" zoomAndPan="magnify"><defs><filter height="300%" id="fnc4ju9o6ra1w" width="300%" x="-1" y="-1"><feGaussianBlur result="blurOut" stdDeviation="2.0"/><feColorMatrix in="blurOut" result="blurOut2" type="matrix" values="0 0 0 0 0 0 0 0 0 0 0 0 0 0 0 0 0 0 .4 0"/><feOffset dx="4.0" dy="4.0" in="blurOut2" result="blurOut3"/><feBlend in="SourceGraphic" in2="blurOut3" mode="normal"/></filter></defs><g><line style="stroke:#A80036;stroke-width:1.0;stroke-dasharray:5.0,5.0;" x1="28" x2="28" y1="88.4883" y2="225.7305"/><line style="stroke:#A80036;stroke-width:1.0;stroke-dasharray:5.0,5.0;" x1="157" x2="157" y1="88.4883" y2="225.7305"/><line style="stroke:#A80036;stroke-width:1.0;stroke-dasharray:5.0,5.0;" x1="321.5" x2="321.5" y1="88.4883" y2="225.7305"/><text fill="#000000" font-family="sans-serif" font-size="14" lengthAdjust="spacing" textLength="40" x="5" y="85.5352">Client</text><ellipse cx="28" cy="15" fill="#FEFECE" filter="url(#fnc4ju9o6ra1w)" rx="8" ry="8" style="stroke:#A80036;stroke-width:2.0;"/><path d="M28,23 L28,50 M15,31 L41,31 M28,50 L15,65 M28,50 L41,65 " fill="none" filter="url(#fnc4ju9o6ra1w)" style="stroke:#A80036;stroke-width:2.0;"/><text fill="#000000" font-family="sans-serif" font-size="14" lengthAdjust="spacing" textLength="40" x="5" y="238.2656">Client</text><ellipse cx="28" cy="251.2188" fill="#FEFECE" filter="url(#fnc4ju9o6ra1w)" rx="8" ry="8" style="stroke:#A80036;stroke-width:2.0;"/><path d="M28,259.2188 L28,286.2188 M15,267.2188 L41,267.2188 M28,286.2188 L15,301.2188 M28,286.2188 L41,301.2188 " fill="none" filter="url(#fnc4ju9o6ra1w)" style="stroke:#A80036;stroke-width:2.0;"/><rect fill="#FEFECE" filter="url(#fnc4ju9o6ra1w)" height="30.4883" style="stroke:#A80036;stroke-width:1.5;" width="66" x="122" y="53"/><text fill="#000000" font-family="sans-serif" font-size="14" lengthAdjust="spacing" textLength="52" x="129" y="73.5352">Pay_API</text><rect fill="#FEFECE" filter="url(#fnc4ju9o6ra1w)" height="30.4883" style="stroke:#A80036;stroke-width:1.5;" width="66" x="122" y="224.7305"/><text fill="#000000" font-family="sans-serif" font-size="14" lengthAdjust="spacing" textLength="52" x="129" y="245.2656">Pay_API</text><rect fill="#FEFECE" filter="url(#fnc4ju9o6ra1w)" height="30.4883" style="stroke:#A80036;stroke-width:1.5;" width="69" x="285.5" y="53"/><text fill="#000000" font-family="sans-serif" font-size="14" lengthAdjust="spacing" textLength="55" x="292.5" y="73.5352">CFS_API</text><rect fill="#FEFECE" filter="url(#fnc4ju9o6ra1w)" height="30.4883" style="stroke:#A80036;stroke-width:1.5;" width="69" x="285.5" y="224.7305"/><text fill="#000000" font-family="sans-serif" font-size="14" lengthAdjust="spacing" textLength="55" x="292.5" y="245.2656">CFS_API</text><polygon fill="#A80036" points="145,115.7988,155,119.7988,145,123.7988,149,119.7988" style="stroke:#A80036;stroke-width:1.0;"/><line style="stroke:#A80036;stroke-width:1.0;" x1="28" x2="151" y1="119.7988" y2="119.7988"/><text fill="#000000" font-family="sans-serif" font-size="13" lengthAdjust="spacing" textLength="55" x="35" y="115.0566">/refunds</text><polygon fill="#A80036" points="310,145.1094,320,149.1094,310,153.1094,314,149.1094" style="stroke:#A80036;stroke-width:1.0;"/><line style="stroke:#A80036;stroke-width:1.0;" x1="157" x2="316" y1="149.1094" y2="149.1094"/><text fill="#000000" font-family="sans-serif" font-size="13" lengthAdjust="spacing" textLength="33" x="164" y="144.3672">/cms</text><polygon fill="#A80036" points="168,174.4199,158,178.4199,168,182.4199,164,178.4199" style="stroke:#A80036;stroke-width:1.0;"/><line style="stroke:#A80036;stroke-width:1.0;" x1="162" x2="321" y1="178.4199" y2="178.4199"/><text fill="#000000" font-family="sans-serif" font-size="13" lengthAdjust="spacing" textLength="141" x="174" y="173.6777">Credit Memo response</text><polygon fill="#A80036" points="39,203.7305,29,207.7305,39,211.7305,35,207.7305" style="stroke:#A80036;stroke-width:1.0;"/><line style="stroke:#A80036;stroke-width:1.0;" x1="33" x2="156" y1="207.7305" y2="207.7305"/><text fill="#000000" font-family="sans-serif" font-size="13" lengthAdjust="spacing" textLength="105" x="45" y="202.9883">Refund response</text><!--MD5=[e3b7574b1c77f0c2792e35d2f20fd30c]
@startuml pad/refund
actor       Client
participant Pay_API
participant CFS_API

Client -> Pay_API: /refunds
Pay_API -> CFS_API:/cms
CFS_API -> Pay_API:Credit Memo response
Pay_API -> Client: Refund response

@enduml

PlantUML version 1.2021.14(Fri Nov 12 08:46:50 PST 2021)
(GPL source distribution)
Java Runtime: OpenJDK Runtime Environment
JVM: OpenJDK 64-Bit Server VM
Default Encoding: UTF-8
Language: en
Country: CA
--></g></svg>